<svg width="20" height="20" viewBox="0 0 20 20" fill="none" xmlns="http://www.w3.org/2000/svg">
<circle cx="10" cy="10" r="10" fill="#FFCF52"/>
<path d="M10.0001 5.2C9.63743 5.2 9.27472 5.37686 9.07865 5.73092L5.46654 12.2565C5.0856 12.9448 5.60135 13.821 6.38802 13.821H13.6127C14.3994 13.821 14.9151 12.9448 14.5342 12.2565L10.9216 5.73092C10.7255 5.37686 10.3628 5.2 10.0001 5.2ZM10.0001 5.87584C10.1188 5.87584 10.2373 5.94034 10.3091 6.06998L13.9217 12.5956C14.0601 12.8457 13.898 13.121 13.6127 13.121H6.38802C6.10276 13.121 5.94058 12.8457 6.07904 12.5956L9.69115 6.06998C9.76294 5.94034 9.88147 5.87584 10.0001 5.87584ZM9.99467 7.74935C9.90192 7.75079 9.81354 7.789 9.74894 7.85556C9.68434 7.92213 9.6488 8.01161 9.65013 8.10436V10.4377C9.64948 10.4841 9.65805 10.5301 9.67534 10.5732C9.69264 10.6162 9.71831 10.6554 9.75088 10.6884C9.78344 10.7214 9.82225 10.7477 9.86504 10.7656C9.90783 10.7835 9.95375 10.7927 10.0001 10.7927C10.0465 10.7927 10.0924 10.7835 10.1352 10.7656C10.178 10.7477 10.2168 10.7214 10.2494 10.6884C10.282 10.6554 10.3076 10.6162 10.3249 10.5732C10.3422 10.5301 10.3508 10.4841 10.3501 10.4377V8.10436C10.3508 8.05751 10.3421 8.01101 10.3244 7.9676C10.3068 7.9242 10.2806 7.88477 10.2475 7.85167C10.2143 7.81856 10.1749 7.79244 10.1315 7.77487C10.088 7.75729 10.0415 7.74861 9.99467 7.74935ZM10.0001 11.4877C9.87637 11.4877 9.75767 11.5369 9.67015 11.6244C9.58263 11.7119 9.53347 11.8306 9.53347 11.9544C9.53347 12.0781 9.58263 12.1968 9.67015 12.2843C9.75767 12.3719 9.87637 12.421 10.0001 12.421C10.1239 12.421 10.2426 12.3719 10.3301 12.2843C10.4176 12.1968 10.4668 12.0781 10.4668 11.9544C10.4668 11.8306 10.4176 11.7119 10.3301 11.6244C10.2426 11.5369 10.1239 11.4877 10.0001 11.4877Z" fill="white"/>
</svg>
